<svg width="1000" height="202" fill="none" xmlns="http://www.w3.org/2000/svg"><path fill-rule="evenodd" clip-rule="evenodd" d="M439 49.5c-7.3-4-18.1-6-33-6-20.5 0-39.5 4.3-46.7 7-1.6.6-3.3 2-3.4 4.4v.6l2 10.3.1.2c.6 2 2.4 3 4 3l1.2-.2 3.4-.8c9-2.2 22.4-5.7 37.4-5.7a52 52 0 0119.4 2.6c6.6 2.6 6.7 7 6.7 14.2v10.8h-4c-7.4 0-21.8.4-36 2.7-21.8 3.4-39.8 8.6-39.7 39 0 38.6 35.3 38.7 52.2 38.7 11.5 0 22.1-1.7 29-3.2 15.9-3.7 20-8.8 19.7-24.7V78.2c0-9.8 0-22-12.4-28.7zm-8.8 99.2a87.3 87.3 0 01-27.3 4.1v1-1c-15.6-.1-30.8-2-30.9-22 .1-16.1 8.6-18 19.3-20.5l.7-.1c9.5-2.1 33.3-2.5 38.3-2.5v41zm197.3-70.5v64.1c.2 16-3.8 21-19.6 24.8-7 1.5-17.6 3.2-29 3.2-17 0-52.3-.1-52.3-38.7-.1-30.4 17.9-35.7 39.6-39 14.2-2.4 28.7-2.7 36-2.7h4.1V79.1c0-7.3 0-11.6-6.7-14.2a51.5 51.5 0 00-19.4-2.6c-15 0-28.5 3.4-37.4 5.7l-3.4.8-1.3.2a4 4 0 01-3.9-3v-.2l-2-10.4V55c0-2.4 1.7-3.9 3.3-4.4 7.2-2.7 26.2-7 46.6-7 15 0 25.8 2 33 6 12.4 6.7 12.4 18.9 12.4 28.7zm-21 29.5c-5 0-28.8.4-38.3 2.5l-.8.1c-10.6 2.5-19 4.4-19.2 20.4 0 20.2 15.3 22 30.9 22.1v1-1c9.7 0 19-1.4 27.3-4.1v-41zm340.2-64.2c-49 0-53.3 32.8-53.3 63.5 0 30.6 4.2 63.2 53.3 63.3 49 0 53.2-32.6 53.3-63.3 0-32.1-4.2-63.4-53.3-63.5zm0 108.9c-29.8-.2-31.3-15.7-31.5-45.4.2-29.8 1.7-45.4 31.5-45.6 29.8.2 31.3 15.8 31.5 45.6-.2 29.7-1.7 45.2-31.5 45.4zm-88.1 13.4l-1.3.3c-6.8 1.8-16.2 4.2-32.7 4.2-45.5 0-54.4-23.3-54.5-63.5 0-46 14.5-63.2 53-63.3 13.7 0 23.1 1.8 29.9 3.5V9.8c-.1-1.6.6-3.7 4.4-4.4l12-3.2h.7c2.8.1 3.8 2.6 3.8 4.7v139.5c.1 8.8-.9 16.3-15.3 19.4zm-5.7-101c-4-1-15.3-3.6-28-3.6-23.2.2-33 6.6-33.2 45.8.3 43 13 45.4 33.5 45.6v1-1c12.8 0 23.8-2.7 27.7-3.8v-84zM744.5 167.4h-10.8a5 5 0 01-5-5.2V79.5c-.3-14-4.4-17.9-19.2-18-16.8 0-33.8 4.2-39.4 5.7v95c0 3-2 5.2-4.9 5.2h-11a5 5 0 01-5-5.2V69.5c-.2-8.6.5-14.5 12.6-18.5 11.5-4 33.5-7.5 48.1-7.5 27.8 0 39.6 10.2 39.6 34v84.8a5 5 0 01-5 5.1zM500 169.6c6.3-.1 10.8-1.3 12.6-3.4.7-.7 1-1.6.9-2.4 0-.7 0-.7-1.7-8.8v-.2c-.5-2-2-3-3.2-3h-.1-3.1c-4.5-.2-8.1-.9-8.2-7.4V6.9c0-2.3-1.4-4.6-4-4.7h-.8l-12 3.2c-2.1.2-4.3 1.7-4.2 4.4v135c0 16 8.5 24.8 23.8 24.8zm-170.7-2.2h-86.6a5 5 0 01-5-5.2v-10.7c-.1-2.6.7-3.8 2.3-5.8l69-81.4h-67.6a5 5 0 01-5-5.1v-7.6a5 5 0 015-5.2h87.5a5 5 0 015 5.2v11c.1 1.9-.5 3.6-2.1 5.3l-69.1 81.6h66.6a5 5 0 015.1 5.1v7.7a5 5 0 01-5 5z" fill="#1D1D1B"/><path fill-rule="evenodd" clip-rule="evenodd" d="M40.1 201.5c-7.3 0-11.4-1.8-13.6-3-3-1.8-8.6-6.3-13.6-19.6C5 157.5.2 131.4 0 100.9v-.2C.2 70 5 44 13 22.6 18 9.3 23.4 4.8 26.4 3c2.2-1.3 6.3-3 13.6-3 2.8 0 6 .3 10 .9a219.1 219.1 0 0173 27.6c26.1 15.6 46 32.8 60.2 50.5 8.9 11 10 18.2 10 21.7 0 3.6-1.1 10.7-10 21.8a221.6 221.6 0 01-60.1 50.4h-.1a218.5 218.5 0 01-73 27.7 60 60 0 01-10 .9" fill="#FF6900"/></svg>