<svg xmlns="http://www.w3.org/2000/svg" id="Layer_4" width="536.9" height="128"><style>.st0{fill:none}.st5{opacity:.2;enable-background:new}.st13,.st5{fill:#fff}</style><g id="XMLID_2_"><g id="XMLID_3_"><g id="XMLID_4_"><path id="XMLID_33_" d="M78.7 58L45.1 0H.3l37 64-37 64h44.8l33.5-58c2.2-3.7 2.2-8.3.1-12z" class="st0"/><path id="XMLID_32_" fill="#ffc107" d="M59.4 102.3L48.8 83.9 23.3 128h21.8l14.6-25.2z"/><path id="XMLID_31_" d="M78.7 58L45.1 0H.3l37 64-37 64h44.8l33.5-58c2.2-3.7 2.2-8.3.1-12z" class="st0"/><path id="XMLID_30_" fill="#0f9d58" d="M37.3 64l11.5 19.9L23.3 128H.3z"/><path id="XMLID_29_" d="M78.7 58L45.1 0H.3l37 64-37 64h44.8l33.5-58c2.2-3.7 2.2-8.3.1-12z" class="st0"/><path id="XMLID_28_" fill="#bf360c" d="M45.1 127H23.8l-.5 1h21.8l14.6-25.2-.3-.5z" opacity=".2"/><path id="XMLID_27_" d="M78.7 58L45.1 0H.3l37 64-37 64h44.8l33.5-58c2.2-3.7 2.2-8.3.1-12z" class="st0"/><path id="XMLID_26_" fill="#263238" d="M.8 127l-.5 1h23l.5-1z" opacity=".2"/><path id="XMLID_25_" d="M78.7 58L45.1 0H.3l37 64-37 64h44.8l33.5-58c2.2-3.7 2.2-8.3.1-12z" class="st0"/><path id="XMLID_24_" d="M.3 128h.5l36.8-63.5-.3-.5z" class="st5"/><path id="XMLID_23_" d="M78.7 58L45.1 0H.3l37 64-37 64h44.8l33.5-58c2.2-3.7 2.2-8.3.1-12z" class="st0"/><radialGradient id="XMLID_34_" cx="59.537" cy="27.626" r="44.264" gradientTransform="matrix(1 0 0 -1 0 130)" gradientUnits="userSpaceOnUse"><stop offset="0" stop-color="#bf360c" stop-opacity=".2"/><stop offset="1" stop-color="#bf360c" stop-opacity=".02"/></radialGradient><path id="XMLID_22_" fill="url(#XMLID_34_)" d="M59.7 102.8L48.8 83.9l-2.7 4.6z"/><path id="XMLID_21_" d="M78.7 58L45.1 0H.3l37 64-37 64h44.8l33.5-58c2.2-3.7 2.2-8.3.1-12z" class="st0"/><radialGradient id="XMLID_35_" cx="59.411" cy="27.346" r="44.623" gradientTransform="matrix(1 0 0 -1 0 130)" gradientUnits="userSpaceOnUse"><stop offset="0" stop-color="#263238" stop-opacity=".2"/><stop offset="1" stop-color="#263238" stop-opacity=".02"/></radialGradient><path id="XMLID_20_" fill="url(#XMLID_35_)" d="M46.1 88.5l2.7-4.6L37.3 64l-5.5 9.5z"/><path id="XMLID_19_" d="M78.7 58L45.1 0H.3l37 64-37 64h44.8l33.5-58c2.2-3.7 2.2-8.3.1-12z" class="st0"/><g id="XMLID_16_"><g id="XMLID_17_"><path id="XMLID_18_" fill="#4285f4" d="M23.3 0H.3l59.4 102.8 11.5-19.9z"/></g></g><path id="XMLID_15_" d="M78.7 58L45.1 0H.3l37 64-37 64h44.8l33.5-58c2.2-3.7 2.2-8.3.1-12z" class="st0"/><path id="XMLID_14_" fill="#db4437" d="M78.7 70c2.1-3.7 2.1-8.3 0-12L45.1 0H23.3l47.9 82.9L78.7 70z"/><path id="XMLID_13_" d="M78.7 58L45.1 0H.3l37 64-37 64h44.8l33.5-58c2.2-3.7 2.2-8.3.1-12z" class="st0"/><path id="XMLID_12_" fill="#1a237e" d="M71.2 82.9l-.3-.5-11.2 19.4L.8 0H.3l59.4 102.8 11.5-19.9z" opacity=".2"/><path id="XMLID_11_" d="M78.7 58L45.1 0H.3l37 64-37 64h44.8l33.5-58c2.2-3.7 2.2-8.3.1-12z" class="st0"/><path id="XMLID_10_" d="M45.1 1l33.5 58c1 1.7 1.5 3.6 1.6 5.5.1-2.2-.4-4.5-1.6-6.5L45.1 0H.3l.6 1h44.2z" class="st5"/><path id="XMLID_9_" d="M78.7 58L45.1 0H.3l37 64-37 64h44.8l33.5-58c2.2-3.7 2.2-8.3.1-12z" class="st0"/><path id="XMLID_8_" fill="#3e2723" d="M71.2 82.9L78.7 70c1.2-2 1.7-4.3 1.6-6.5-.1 1.9-.6 3.8-1.6 5.5L71 82.4l.2.5z" opacity=".2"/><path id="XMLID_6_" d="M78.7 58L45.1 0H.3l37 64-37 64h44.8l33.5-58c2.2-3.7 2.2-8.3.1-12z" class="st0"/><radialGradient id="XMLID_36_" cx="-.74" cy="129" r="134.35" gradientTransform="matrix(1 0 0 -1 0 130)" gradientUnits="userSpaceOnUse"><stop offset="0" stop-color="#fff" stop-opacity=".1"/><stop offset="1" stop-color="#fff" stop-opacity="0"/></radialGradient><path id="XMLID_5_" fill="url(#XMLID_36_)" d="M78.7 58L45.1 0H.3l37 64-37 64h44.8l33.5-58c2.2-3.7 2.2-8.3.1-12z"/></g></g></g><g id="XMLID_1_"><path d="M177.8 34.3c0 7.2-2.1 13-6.4 17.2-4.8 5.1-11.1 7.7-19 7.7-7.4 0-13.8-2.6-19-7.8a26 26 0 01-7.7-19.2 26 26 0 017.7-19.1 25.9 25.9 0 0119-7.8c3.8 0 7.4.7 10.8 2 3.3 1.4 6.1 3.3 8.3 5.7l-4.8 4.8c-1.6-2-3.6-3.5-6.2-4.5a19.7 19.7 0 00-8-1.7c-5.7 0-10.4 2-14.3 5.9-3.8 3.9-5.8 8.8-5.8 14.7 0 6 2 10.8 5.8 14.8 3.9 3.9 8.6 5.8 14.2 5.8 5.2 0 9.5-1.4 12.9-4.3 3.4-2.9 5.3-6.8 5.9-11.9h-18.8v-6.2h25c.3 1.4.4 2.7.4 4zm6 23.7V6.4h15.8c7.9 0 14.2 2.4 19 7.2a25 25 0 017.1 18.6c0 7.8-2.4 14-7.2 18.7-4.7 4.7-11 7.1-19 7.1h-15.7zm6.6-45.2v38.9h9.2c6 0 10.7-1.7 14.2-5.1 3.4-3.5 5.2-8.3 5.2-14.4 0-6-1.8-10.8-5.2-14.2a19.2 19.2 0 00-14.2-5.2h-9.2zm90.8 21.5c0 7.2-2.1 13-6.4 17.2-4.8 5.1-11.1 7.7-19 7.7-7.4 0-13.8-2.6-19-7.8a26 26 0 01-7.7-19.2 26 26 0 017.7-19.1 25.9 25.9 0 0119-7.8c3.8 0 7.4.7 10.8 2 3.3 1.4 6.1 3.3 8.3 5.7l-4.8 4.8c-1.6-2-3.6-3.5-6.2-4.5a19.7 19.7 0 00-8-1.7c-5.7 0-10.4 2-14.3 5.9-3.8 3.9-5.8 8.8-5.8 14.7 0 6 2 10.8 5.8 14.8 3.9 3.9 8.6 5.8 14.3 5.8 5 0 9.4-1.4 12.8-4.3 3.4-2.9 5.3-6.8 5.9-11.9h-18.7v-6.2h25l.3 4zM301 58V6.4h15.8c7.9 0 14.2 2.4 19 7.2a25 25 0 017.1 18.6c0 7.8-2.4 14-7.2 18.7-4.7 4.7-11 7.1-18.9 7.1H301zm6.7-45.2v38.9h9.1c6 0 10.7-1.7 14.2-5.1 3.4-3.5 5.2-8.3 5.2-14.4 0-6-1.8-10.8-5.2-14.2a19.2 19.2 0 00-14.2-5.2h-9.1zm54.7 46.4c-5.2 0-9.4-1.8-12.8-5.4-3.3-3.5-5-8-5-13.4a19 19 0 014.9-13.4c3.2-3.6 7.4-5.4 12.5-5.4a16 16 0 0112.5 5A20 20 0 01379 41v.7h-27.8c.1 3.4 1.3 6.2 3.5 8.3a11 11 0 008 3.2c4.1 0 7.5-2.1 9.9-6.3l5.9 2.8a18 18 0 01-16.1 9.5zm-10.6-23h20.3a8.6 8.6 0 00-3-6.1 10.2 10.2 0 00-7.2-2.5c-2.5 0-4.7.8-6.5 2.3-1.8 1.6-3 3.6-3.6 6.2zM399.6 58H393l-14.3-35.3h7.2l10.4 27.4h.1L407 22.7h7L399.6 58zm24.5-22.1V58h-6.6V6.4h30v6.4h-23.4v16.9h21.2v6.2H424zm41.5 23.3c-5.2 0-9.5-1.8-12.8-5.4-3.4-3.5-5-8-5-13.4a19 19 0 014.8-13.4c3.3-3.6 7.5-5.4 12.5-5.4a16 16 0 0112.5 5 20 20 0 014.7 14.3v.7h-27.8c0 3.4 1.2 6.2 3.4 8.3a11 11 0 008 3.2c4.2 0 7.5-2.1 9.9-6.3l6 2.8a18 18 0 01-16.1 9.5zm-10.6-23h20.2a8.6 8.6 0 00-3-6.1 10.2 10.2 0 00-7.2-2.5c-2.5 0-4.7.8-6.5 2.3-1.8 1.6-3 3.6-3.5 6.2zm58.7 12c0 3-1.4 5.7-4 7.8a16 16 0 01-10.2 3.2c-3.6 0-6.7-1-9.4-2.8a15.5 15.5 0 01-5.7-7.3l5.9-2.5c.8 2 2 3.7 3.7 5a9.5 9.5 0 005.5 1.6c2.1 0 3.9-.4 5.2-1.3 1.5-1 2.2-2 2.2-3.3 0-2.2-1.7-3.9-5.2-5l-6-1.4c-6.9-1.8-10.3-5-10.3-10 0-3.2 1.3-5.8 3.9-7.7 2.6-2 6-3 10-3 3.2 0 6 .8 8.5 2.3a12 12 0 015.3 6l-5.9 2.4a7.2 7.2 0 00-3.3-3.4 9.9 9.9 0 00-9.7 0c-1.4.8-2 1.9-2 3.1 0 2 1.8 3.5 5.6 4.4l5.4 1.3c7 1.8 10.5 5.3 10.5 10.6zM531 58.6c-2.8 0-5.2-1-7.2-2.7a10 10 0 01-2.8-7.4V28.8h-6.2v-6h6.2V11.8h6.6v10.8h8.6v6h-8.6v17.6c0 2.4.4 4 1.4 4.9.9.8 1.9 1.2 3 1.2.6 0 1 0 1.6-.2l1.4-.5 2 6c-1.6.6-3.7.9-6 .9zM128.2 122V70.4h18.6c4.1 0 7.6 1.4 10.5 4 3 2.7 4.4 6 4.4 10 0 5.2-2.3 8.8-7 10.8v.3a12.4 12.4 0 018.8 11.8c0 4.2-1.6 7.7-4.6 10.5-3 2.8-6.7 4.2-11 4.2h-19.7zm6.6-45.2v15.8h12a8 8 0 006-2.4 7.8 7.8 0 002.3-5.6c0-2-.8-3.8-2.3-5.4a7.6 7.6 0 00-5.7-2.4h-12.3zm0 22v16.9h13.3c2.4 0 4.5-.9 6.1-2.6a8.3 8.3 0 000-11.8 8.6 8.6 0 00-6.4-2.6h-13zm48.8 24.4c-5.2 0-9.4-1.8-12.8-5.4-3.4-3.5-5-8-5-13.4a19 19 0 014.8-13.4c3.3-3.6 7.5-5.4 12.6-5.4a16 16 0 0112.4 5 20 20 0 014.7 14.3v.7h-27.8c.1 3.4 1.3 6.2 3.5 8.3a11 11 0 007.9 3.2c4.2 0 7.5-2.1 10-6.3l5.8 2.8a18 18 0 01-16.1 9.5zm-10.6-23h20.3a8.6 8.6 0 00-3-6.1 10.2 10.2 0 00-7.3-2.5c-2.5 0-4.6.8-6.4 2.3-1.8 1.6-3 3.6-3.6 6.2zm38 21.8h-6.6V86.7h6.3v5.8h.3c.6-1.9 2-3.5 4-4.8 2.2-1.3 4.3-2 6.3-2 1.9 0 3.5.3 4.9.9l-2 6.4a11 11 0 00-4-.5c-2.4 0-4.6 1-6.5 3-1.8 2-2.7 4.4-2.7 7V122zm24.5-51.6V122h-6.7V70.4h6.7zm14.6 4.2c0 1.2-.5 2.4-1.4 3.3-.9.9-2 1.3-3.3 1.3-1.3 0-2.4-.4-3.3-1.3-1-1-1.4-2-1.4-3.3 0-1.3.5-2.4 1.4-3.4 1-.9 2-1.3 3.3-1.3 1.3 0 2.4.4 3.3 1.3 1 1 1.4 2 1.4 3.4zm-1.4 12.1V122h-6.6V86.7h6.6zm6.6 0h6.4v5h.3c1-1.8 2.5-3.3 4.6-4.4 2-1.2 4.3-1.7 6.5-1.7 4.3 0 7.6 1.2 10 3.7 2.3 2.5 3.5 6 3.5 10.5V122H280v-21.7c-.2-5.8-3.1-8.7-8.8-8.7-2.6 0-4.8 1.1-6.6 3.3a11.5 11.5 0 00-2.6 7.6V122h-6.7V86.7zm81 29v6.3H305v-6.6l12.7-13c4.3-4.3 7.3-7.5 8.9-9.7 1.6-2.2 2.4-4.5 2.4-7 0-2-.8-4-2.5-5.5A9.2 9.2 0 00320 78a9 9 0 00-9 7l-6-2.5c1-3 2.8-5.6 5.5-7.6 2.8-2.1 6-3.2 9.7-3.2 4.4 0 8.2 1.4 11.1 4.1 3 2.7 4.5 6.1 4.5 10 0 4.8-2.6 10-7.8 15.5l-14.4 14.5h22.8zm4.4-18.3c0-7.5 1.8-13.7 5.5-18.5 3.7-4.9 8.5-7.3 14.3-7.3 5.8 0 10.5 2.4 14.2 7.3 3.7 4.9 5.6 11 5.6 18.5a30 30 0 01-5.6 18.5 17.2 17.2 0 01-14.2 7.3c-5.8 0-10.6-2.5-14.3-7.3a30 30 0 01-5.5-18.5zm32.8 0a25 25 0 00-3.6-14 10.8 10.8 0 00-9.4-5.5c-4 0-7.1 1.9-9.5 5.5a25 25 0 00-3.6 14c0 5.6 1.2 10.3 3.6 14 2.4 3.6 5.5 5.4 9.5 5.4 3.9 0 7-1.8 9.4-5.5 2.4-3.7 3.6-8.3 3.6-14zm28.8-24.6V122h-6.6V81L386 85l-2.5-5.6 14.4-6.7h4.3zm22.3 31.2a15 15 0 01-10.7-4.7 15.6 15.6 0 01.3-22.7c3.4-3.3 7.3-5 11.8-5 4.8 0 8.8 1.6 12 4.9 3.3 3.3 5 7.1 5 11.6 0 4-1.7 8.5-4.9 13.6l-14.3 21.5-5.3-3.7 12.1-16.9-.1-.1c-1.5 1-3.5 1.5-5.9 1.5zm11.7-16c0-2.8-1-5.1-3-7.1s-4.4-3-7.3-3c-2.8 0-5.2 1-7.2 3s-3 4.3-3 7.1 1 5.2 3 7.1c2.1 2 4.5 3 7.2 3 2.8 0 5.2-1 7.2-3 2-1.9 3-4.3 3-7z" class="st13"/></g></svg>