<svg width="135" height="32" fill="none" xmlns="http://www.w3.org/2000/svg"><g clip-path="url(#clip0)" fill="#000"><path d="M5.2 0H0l14.8 25.6 2.6-4.5L5.2 0zM19.3 14.6L10.9 0H5.8l11.9 20.6 1.7-2.9a2.93 2.93 0 00-.1-3.1zM9 16.7L.2 32h5.1l6.3-10.9L9 16.7zM11.9 21.6L5.9 32h5.2l3.4-5.9-2.6-4.5zM44.4 8.58c0 1.8-.52 3.26-1.59 4.3a6.2 6.2 0 01-4.75 1.94 6.48 6.48 0 01-4.74-1.96 6.5 6.5 0 01-1.92-4.8 6.52 6.52 0 011.92-4.78 6.47 6.47 0 014.74-1.95c.95 0 1.85.17 2.7.5a5.9 5.9 0 012.08 1.42l-1.2 1.2c-.4-.5-.9-.87-1.55-1.12a4.91 4.91 0 00-2-.43c-1.42 0-2.6.5-3.57 1.48a5.08 5.08 0 00-1.45 3.68c0 1.5.5 2.7 1.45 3.7a4.8 4.8 0 003.54 1.45c1.3 0 2.38-.35 3.23-1.07a4.38 4.38 0 001.47-2.98h-4.7V7.61h6.25c.07.35.1.67.1 1v-.03zm1.5 5.94V1.6h3.95c1.98 0 3.55.6 4.75 1.8a6.26 6.26 0 011.77 4.66c0 1.95-.6 3.5-1.8 4.68a6.4 6.4 0 01-4.74 1.78H45.9zM47.57 3.2v9.74h2.3c1.5 0 2.67-.43 3.54-1.28a4.97 4.97 0 001.3-3.6c0-1.5-.45-2.7-1.3-3.56a4.8 4.8 0 00-3.55-1.3h-2.3zm22.67 5.38c0 1.8-.52 3.26-1.6 4.3a6.2 6.2 0 01-4.74 1.94 6.48 6.48 0 01-4.75-1.96 6.5 6.5 0 01-1.92-4.8 6.52 6.52 0 011.92-4.78 6.47 6.47 0 014.75-1.95c.95 0 1.85.17 2.7.5a5.9 5.9 0 012.07 1.42l-1.2 1.2c-.4-.5-.9-.87-1.55-1.12a4.91 4.91 0 00-2-.43c-1.42 0-2.6.5-3.57 1.48a5.08 5.08 0 00-1.44 3.68c0 1.5.5 2.7 1.44 3.7a4.82 4.82 0 003.58 1.45 4.8 4.8 0 003.2-1.07 4.38 4.38 0 001.47-2.98h-4.67V7.61h6.24l.07 1v-.03zm4.95 5.94V1.6h3.95c1.97 0 3.54.6 4.74 1.8a6.26 6.26 0 011.78 4.66c0 1.95-.6 3.5-1.8 4.68a6.38 6.38 0 01-4.72 1.78h-3.95zM76.85 3.2v9.74h2.28c1.5 0 2.67-.43 3.54-1.28a4.97 4.97 0 001.3-3.6c0-1.5-.45-2.7-1.3-3.56a4.8 4.8 0 00-3.54-1.3h-2.28zm13.67 11.62c-1.3 0-2.35-.45-3.2-1.36-.83-.87-1.25-2-1.25-3.35a4.76 4.76 0 011.22-3.35c.8-.9 1.85-1.35 3.13-1.35a3.99 3.99 0 013.12 1.25c.83 1 1.23 2.3 1.12 3.6v.18h-6.94a2.89 2.89 0 001.79 2.68c.34.14.71.2 1.08.2 1.02 0 1.87-.53 2.47-1.58l1.48.7a4.5 4.5 0 01-4.02 2.38zm-2.65-5.76h5.07a2.16 2.16 0 00-.75-1.53 2.54 2.54 0 00-1.8-.62c-.62 0-1.17.2-1.62.57-.45.4-.75.9-.9 1.55v.03zm11.94 5.46h-1.65l-3.57-8.84h1.8l2.6 6.86H99l2.64-6.86h1.75l-3.6 8.84zm6.12-5.54v5.54h-1.65V1.6h7.5v1.6h-5.85v4.23h5.3v1.55h-5.33.03zm10.36 5.84c-1.3 0-2.37-.45-3.2-1.36-.84-.87-1.24-2-1.24-3.35a4.76 4.76 0 011.2-3.35 4.06 4.06 0 013.12-1.35 4 4 0 013.12 1.25c.84 1 1.26 2.28 1.17 3.58v.17h-6.94c0 .85.3 1.55.85 2.08a2.76 2.76 0 002 .8c1.05 0 1.87-.53 2.47-1.58l1.5.7a4.5 4.5 0 01-4.02 2.38l-.03.03zm-2.65-5.76h5.05a2.16 2.16 0 00-.75-1.53 2.54 2.54 0 00-1.8-.62 2.48 2.48 0 00-2.5 2.12v.03zm14.67 3c0 .75-.35 1.43-1 1.96-.74.55-1.64.83-2.55.8a3.88 3.88 0 01-3.77-2.53l1.47-.63c.2.5.5.93.93 1.25.4.28.88.42 1.37.4.52 0 .97-.1 1.3-.32.37-.25.55-.5.55-.83 0-.55-.43-.97-1.3-1.25l-1.5-.35c-1.72-.45-2.57-1.25-2.57-2.5 0-.8.32-1.45.97-1.93a4 4 0 012.5-.75c.8 0 1.5.2 2.12.58a3 3 0 011.33 1.5l-1.48.6a1.8 1.8 0 00-.82-.85 2.47 2.47 0 00-2.42 0c-.36.2-.5.47-.5.77 0 .5.45.88 1.4 1.1l1.34.33c1.75.45 2.63 1.33 2.63 2.65zm4.32 2.6c-.7 0-1.3-.24-1.8-.67a2.5 2.5 0 01-.7-1.85V7.2h-1.55V5.7h1.55V2.95h1.65v2.7h2.15v1.5h-2.15v4.41c0 .6.1 1 .35 1.23.22.2.47.3.75.3.15 0 .25 0 .4-.05l.34-.13.5 1.5c-.4.16-.92.23-1.5.23v.03zM32.02 30.54V17.62h4.65c1.02 0 1.9.35 2.62 1a3.2 3.2 0 011.1 2.5c0 1.3-.58 2.2-1.75 2.7v.08a3.1 3.1 0 012.2 2.95c0 1.06-.4 1.93-1.15 2.63a3.89 3.89 0 01-2.75 1.05h-4.92zm1.65-11.3v3.95h3a2 2 0 002.07-2c0-.5-.2-.96-.58-1.36a1.9 1.9 0 00-1.42-.6h-3.07zm0 5.5v4.23h3.32c.6 0 1.12-.23 1.52-.65a2.08 2.08 0 000-2.96 2.15 2.15 0 00-1.6-.65h-3.24v.03zm12.19 6.1c-1.3 0-2.35-.45-3.2-1.35-.85-.87-1.25-2-1.25-3.35a4.76 4.76 0 011.2-3.36 4.08 4.08 0 013.15-1.35 3.99 3.99 0 013.1 1.25c.84 1 1.26 2.28 1.17 3.58v.18h-6.95a2.89 2.89 0 001.79 2.68c.33.13.7.2 1.06.2 1.05 0 1.88-.53 2.5-1.58l1.45.7a4.5 4.5 0 01-4.02 2.38v.02zm-2.65-5.75h5.07a2.16 2.16 0 00-.75-1.53 2.54 2.54 0 00-1.82-.63c-.63 0-1.15.2-1.6.58-.45.4-.75.9-.9 1.55v.03zm9.5 5.45h-1.66V21.7h1.58v1.45h.07c.15-.48.5-.88 1-1.2.55-.33 1.07-.5 1.57-.5.48 0 .88.07 1.23.22l-.5 1.6c-.32-.1-.66-.14-1-.12-.6 0-1.15.25-1.62.75-.45.5-.68 1.1-.68 1.75v4.88zm6.11-12.91v12.91h-1.67V17.62h1.67zm3.65 1.05c0 .3-.13.6-.35.83-.23.22-.5.32-.83.32-.32 0-.6-.1-.82-.32-.25-.25-.35-.5-.35-.83a1.15 1.15 0 011.17-1.18c.33 0 .6.1.83.33.25.25.35.5.35.85zm-.35 3.03v8.83h-1.65V21.7h1.65zm1.65 0h1.6v1.25h.07c.25-.45.62-.83 1.15-1.1.5-.3 1.07-.43 1.62-.43 1.08 0 1.9.3 2.5.93.57.63.87 1.5.87 2.63v5.55h-1.65V25.1c-.05-1.45-.77-2.18-2.2-2.18-.64 0-1.2.28-1.64.83a2.88 2.88 0 00-.65 1.9v4.88h-1.67V21.7zM84 28.96v1.57h-7.82v-1.65l3.17-3.25a24.46 24.46 0 002.22-2.43c.4-.55.6-1.13.6-1.75 0-.5-.2-1-.62-1.38a2.3 2.3 0 00-1.62-.55 2.25 2.25 0 00-2.25 1.75l-1.5-.62a3.92 3.92 0 013.8-2.7c1.1 0 2.04.35 2.77 1.02a3.26 3.26 0 011.12 2.5c0 1.2-.65 2.5-1.95 3.88l-3.6 3.63h5.7l-.02-.02zm1.1-4.58c0-1.88.45-3.43 1.37-4.63a4.28 4.28 0 013.57-1.83c1.45 0 2.62.6 3.55 1.83a7.45 7.45 0 011.4 4.63 7.52 7.52 0 01-1.4 4.63 4.3 4.3 0 01-3.55 1.82 4.34 4.34 0 01-3.57-1.82 7.52 7.52 0 01-1.37-4.63zm8.19 0a6.27 6.27 0 00-.9-3.5 2.7 2.7 0 00-4.72 0 6.27 6.27 0 00-.9 3.5c0 1.4.3 2.57.9 3.5a2.72 2.72 0 004.72-.02c.6-.93.9-2.08.9-3.5v.02zm7.2-6.16v12.31h-1.66V20.27l-2.42 1-.62-1.4 3.6-1.68h1.07l.02.03zm5.56 7.8a3.74 3.74 0 01-2.67-1.17 3.9 3.9 0 01.07-5.68 4.1 4.1 0 012.95-1.25c1.2 0 2.2.4 3 1.23a3.97 3.97 0 011.25 2.9c0 1-.43 2.13-1.23 3.4l-3.57 5.38-1.32-.92 3.02-4.23-.02-.03c-.38.25-.88.38-1.48.38zm2.92-4c0-.7-.25-1.27-.75-1.77s-1.1-.75-1.82-.75c-.7 0-1.3.25-1.8.75a2.4 2.4 0 00-.75 1.77c0 .7.25 1.3.75 1.78a2.53 2.53 0 003.6 0c.5-.47.75-1.08.75-1.75l.02-.03z"/></g><defs><clipPath id="clip0"><path fill="#fff" d="M0 0h134.1v32H0z"/></clipPath></defs></svg>