<svg width="1259" height="200" viewBox="0 0 1259 200" fill="none" xmlns="http://www.w3.org/2000/svg">
<path d="M32.3 0H0L92.3 160L108.5 132L32.3 0Z" fill="#757575"/>
<path d="M120.9 91L68.3 0H36.1L110.4 128.8L120.9 110.6C122.6 107.8 123.7 104.4 123.7 100.8C123.6 97.2 122.6 93.9 120.9 91V91Z" fill="#757575"/>
<path d="M56.3 104.1L0.900024 200H33.2L72.5 132L56.3 104.1Z" fill="#757575"/>
<path d="M74.3 135.3L37 200H69.2L90.5 163.2L74.3 135.3Z" fill="#757575"/>
<path d="M359.42 104.62C359.42 126.62 352.893 144.147 339.84 157.2C325.173 172.747 305.887 180.52 281.98 180.52C259.1 180.52 239.74 172.6 223.9 156.76C208.06 140.92 200.14 121.413 200.14 98.24C200.14 75.0667 208.06 55.56 223.9 39.72C239.74 23.88 259.1 15.96 281.98 15.96C293.567 15.96 304.493 18.0133 314.76 22.12C325.027 26.2267 333.46 32.02 340.06 39.5L325.54 54.02C320.7 48.1533 314.393 43.6067 306.62 40.38C298.993 37.0067 290.78 35.32 281.98 35.32C264.82 35.32 250.3 41.26 238.42 53.14C226.687 65.1667 220.82 80.2 220.82 98.24C220.82 116.28 226.687 131.313 238.42 143.34C250.3 155.22 264.82 161.16 281.98 161.16C297.673 161.16 310.727 156.76 321.14 147.96C331.553 139.16 337.567 127.06 339.18 111.66H281.98V92.74H358.32C359.053 96.8467 359.42 100.807 359.42 104.62ZM380.712 177V19.48H428.892C452.945 19.48 472.232 26.74 486.752 41.26C501.419 55.78 508.752 74.7733 508.752 98.24C508.752 121.853 501.419 140.92 486.752 155.44C472.232 169.813 452.945 177 428.892 177H380.712ZM400.952 38.84V157.64H428.892C447.225 157.64 461.672 152.433 472.232 142.02C482.792 131.46 488.072 116.867 488.072 98.24C488.072 79.76 482.792 65.24 472.232 54.68C461.672 44.12 447.225 38.84 428.892 38.84H400.952ZM681.101 104.62C681.101 126.62 674.575 144.147 661.521 157.2C646.855 172.747 627.568 180.52 603.661 180.52C580.781 180.52 561.421 172.6 545.581 156.76C529.741 140.92 521.821 121.413 521.821 98.24C521.821 75.0667 529.741 55.56 545.581 39.72C561.421 23.88 580.781 15.96 603.661 15.96C615.248 15.96 626.175 18.0133 636.441 22.12C646.708 26.2267 655.141 32.02 661.741 39.5L647.221 54.02C642.381 48.1533 636.075 43.6067 628.301 40.38C620.675 37.0067 612.461 35.32 603.661 35.32C586.501 35.32 571.981 41.26 560.101 53.14C548.368 65.1667 542.501 80.2 542.501 98.24C542.501 116.28 548.368 131.313 560.101 143.34C571.981 155.22 586.501 161.16 603.661 161.16C619.355 161.16 632.408 156.76 642.821 147.96C653.235 139.16 659.248 127.06 660.861 111.66H603.661V92.74H680.001C680.735 96.8467 681.101 100.807 681.101 104.62ZM747.433 177V19.48H804.413C816.88 19.48 827.586 23.5867 836.533 31.8C845.48 39.8667 849.953 50.06 849.953 62.38C849.953 77.9267 842.84 88.8533 828.613 95.16V96.04C836.68 98.68 843.133 103.3 847.973 109.9C852.813 116.353 855.233 123.76 855.233 132.12C855.233 145.027 850.54 155.733 841.153 164.24C832.06 172.747 820.84 177 807.493 177H747.433ZM767.673 38.84V87.02H804.413C811.6 87.02 817.613 84.6 822.453 79.76C827.293 74.7733 829.713 69.1267 829.713 62.82C829.713 56.66 827.366 51.0867 822.673 46.1C817.98 41.26 812.186 38.84 805.293 38.84H767.673ZM767.673 105.94V157.64H808.373C815.706 157.64 821.94 155.073 827.073 149.94C832.06 144.807 834.553 138.72 834.553 131.68C834.553 124.787 831.986 118.773 826.853 113.64C821.72 108.507 815.266 105.94 807.493 105.94H767.673ZM919.638 180.52C903.798 180.52 890.745 175.093 880.478 164.24C870.211 153.387 865.078 139.673 865.078 123.1C865.078 106.673 870.065 93.0333 880.038 82.18C890.011 71.18 902.771 65.68 918.318 65.68C934.305 65.68 946.991 70.8867 956.378 81.3C965.911 91.5667 970.678 106.013 970.678 124.64L970.458 126.84H885.758C886.051 137.4 889.571 145.907 896.318 152.36C903.065 158.813 911.131 162.04 920.518 162.04C933.425 162.04 943.545 155.587 950.878 142.68L968.918 151.48C964.078 160.573 957.331 167.687 948.678 172.82C940.171 177.953 930.491 180.52 919.638 180.52ZM887.298 110.12H949.118C948.531 102.64 945.451 96.48 939.878 91.64C934.451 86.6533 927.118 84.16 917.878 84.16C910.251 84.16 903.651 86.5067 898.078 91.2C892.651 95.8933 889.058 102.2 887.298 110.12ZM1006.13 177H985.887V69.2H1005.25V86.8H1006.13C1008.18 81.08 1012.36 76.24 1018.67 72.28C1025.12 68.1733 1031.43 66.12 1037.59 66.12C1043.45 66.12 1048.44 67 1052.55 68.76L1046.39 88.34C1043.89 87.3133 1039.93 86.8 1034.51 86.8C1026.88 86.8 1020.21 89.88 1014.49 96.04C1008.91 102.2 1006.13 109.387 1006.13 117.6V177ZM1083.82 19.48V177H1063.58V19.48H1083.82ZM1131.37 32.02C1131.37 35.98 1129.97 39.3533 1127.19 42.14C1124.4 44.9267 1121.03 46.32 1117.07 46.32C1113.11 46.32 1109.73 44.9267 1106.95 42.14C1104.16 39.3533 1102.77 35.98 1102.77 32.02C1102.77 28.06 1104.16 24.6867 1106.95 21.9C1109.73 19.1133 1113.11 17.72 1117.07 17.72C1121.03 17.72 1124.4 19.1133 1127.19 21.9C1129.97 24.6867 1131.37 28.06 1131.37 32.02ZM1127.19 69.2V177H1106.95V69.2H1127.19ZM1150.23 69.2H1169.59V84.16H1170.47C1173.55 78.88 1178.24 74.48 1184.55 70.96C1191 67.44 1197.67 65.68 1204.57 65.68C1217.77 65.68 1227.89 69.4933 1234.93 77.12C1242.11 84.6 1245.71 95.3067 1245.71 109.24V177H1225.47V110.56C1225.03 92.96 1216.15 84.16 1198.85 84.16C1190.78 84.16 1184.03 87.46 1178.61 94.06C1173.18 100.513 1170.47 108.287 1170.47 117.38V177H1150.23V69.2Z" fill="#757575"/>
</svg>
